# Blender v2.92.0 OBJ File: ''
# www.blender.org
mtllib greyboxStairs.mtl
o Cube
v 1.500000 4.500000 -6.000000
v 1.500000 1.500000 -6.000000
v 1.500000 -1.500000 6.000000
v 1.500000 -4.500000 6.000000
v -1.500000 4.500000 -6.000000
v -1.500000 1.500000 -6.000000
v -1.500000 -1.500000 6.000000
v -1.500000 -4.500000 6.000000
v 1.350000 1.500000 -6.000000
v 1.350000 -1.500000 6.000000
v 1.350000 -4.500000 6.000000
v 1.350000 4.500000 -6.000000
v -1.357500 1.500000 -6.000000
v -1.357500 -1.500000 6.000000
v -1.357500 -4.500000 6.000000
v -1.357500 4.500000 -6.000000
v 1.500000 4.350000 -6.000000
v -1.500000 -1.650000 6.000000
v 1.500000 -1.650000 6.000000
v -1.500000 4.350000 -6.000000
v 1.350000 4.350000 -6.000000
v 1.350000 -1.650000 6.000000
v -1.357500 4.350000 -6.000000
v -1.357500 -1.650000 6.000000
v 1.500000 1.642500 -6.000000
v 1.500000 -4.357500 6.000000
v -1.500000 1.642500 -6.000000
v 1.350000 1.642500 -6.000000
v 1.350000 -4.357500 6.000000
v -1.357500 1.642500 -6.000000
v -1.357500 -4.357500 6.000000
v -1.500000 -4.357500 6.000000
v -1.500000 -1.650000 6.000000
v -1.500000 -1.500000 6.000000
v -1.357500 -1.500000 6.000000
v -1.500000 4.500000 -6.000000
v -1.357500 4.500000 -6.000000
v -1.500000 4.350000 -6.000000
v -1.676777 -1.491886 6.000000
v -1.676777 -1.341886 6.000000
v -1.534277 -1.341886 6.000000
v -1.676777 4.658114 -6.000000
v -1.534277 4.658114 -6.000000
v -1.676777 4.508114 -6.000000
v 1.676777 4.658114 -6.000000
v 1.676777 -1.341886 6.000000
v 1.526777 4.658114 -6.000000
v 1.526777 -1.341886 6.000000
v 1.676777 4.508114 -6.000000
v 1.676777 -1.491886 6.000000
v 1.676777 1.484386 -6.000000
v 1.676777 1.341886 -6.000000
v 1.676777 -4.515614 6.000000
v 1.676777 -4.658114 6.000000
v 1.526777 -4.658114 6.000000
v 1.526777 1.341886 -6.000000
v -1.676777 1.341886 -6.000000
v -1.676777 -4.658114 6.000000
v -1.534277 1.341886 -6.000000
v -1.676777 1.484386 -6.000000
v -1.534277 -4.658114 6.000000
v -1.676777 -4.515614 6.000000
vt 0.612500 1.000000
vt 0.625000 1.000000
vt 0.625000 1.000000
vt 0.612500 1.000000
vt 0.612500 0.988125
vt 0.625000 0.988125
vt 0.863125 0.750000
vt 0.863125 0.500000
vt 0.863125 0.500000
vt 0.863125 0.750000
vt 0.386875 0.500000
vt 0.386875 0.750000
vt 0.386875 0.750000
vt 0.386875 0.500000
vt 0.612500 0.750000
vt 0.612500 0.500000
vt 0.612500 0.500000
vt 0.612500 0.750000
vt 0.612500 0.487500
vt 0.625000 0.487500
vt 0.625000 0.500000
vt 0.612500 0.261875
vt 0.625000 0.261875
vt 0.136875 0.500000
vt 0.362500 0.500000
vt 0.362500 0.750000
vt 0.136875 0.750000
vt 0.625000 0.750000
vt 0.625000 0.762500
vt 0.612500 0.762500
vt 0.625000 0.487500
vt 0.625000 0.500000
vt 0.375000 0.250000
vt 0.375000 0.261875
vt 0.375000 0.261875
vt 0.375000 0.250000
vt 0.612500 0.250000
vt 0.625000 0.250000
vt 0.637500 0.500000
vt 0.637500 0.750000
vt 0.386875 0.762500
vt 0.386875 0.988125
vt 0.386875 0.250000
vt 0.386875 0.261875
vt 0.386875 0.487500
vt 0.386875 0.000000
vt 0.612500 0.000000
vt 0.386875 1.000000
vt 0.375000 0.988125
vt 0.375000 1.000000
vt 0.386875 0.250000
vt 0.375000 0.487500
vt 0.375000 0.500000
vt 0.375000 0.500000
vt 0.375000 0.487500
vt 0.375000 0.750000
vt 0.375000 0.762500
vt 0.625000 0.250000
vt 0.612500 0.250000
vt 0.612500 0.250000
vt 0.625000 0.250000
vt 0.625000 1.000000
vt 0.612500 1.000000
vt 0.625000 0.261875
vt 0.625000 0.988125
vt 0.612500 0.000000
vt 0.863125 0.500000
vt 0.875000 0.500000
vt 0.875000 0.750000
vt 0.863125 0.750000
vt 0.612500 0.000000
vt 0.625000 0.000000
vt 0.625000 0.261875
vt 0.625000 0.988125
vt 0.625000 0.750000
vt 0.637500 0.500000
vt 0.637500 0.750000
vt 0.625000 0.762500
vt 0.362500 0.500000
vt 0.375000 0.750000
vt 0.362500 0.750000
vt 0.375000 0.762500
vt 0.125000 0.500000
vt 0.136875 0.500000
vt 0.136875 0.750000
vt 0.125000 0.750000
vt 0.375000 0.000000
vt 0.386875 0.000000
vt 0.375000 1.000000
vt 0.375000 0.988125
vt 0.386875 1.000000
vn 0.0000 0.0000 1.0000
vn 0.6247 0.6984 0.3492
vn 0.6247 -0.6984 -0.3492
vn 0.0000 0.0000 -1.0000
vn 0.0000 -0.8944 -0.4472
vn 0.0000 0.8944 0.4472
vn 1.0000 0.0000 0.0000
vn -1.0000 0.0000 0.0000
vn -0.6247 -0.6984 -0.3492
vn -0.6247 0.6984 0.3492
usemtl (null)
s off
f 18/1/1 7/2/1 34/3/1 33/4/1
f 24/5/1 14/6/1 7/2/1 18/1/1
f 14/7/1 16/8/1 37/9/1 35/10/1
f 25/11/2 26/12/2 53/13/2 51/14/2
f 19/15/3 17/16/3 49/17/3 50/18/3
f 21/19/4 12/20/4 1/21/4 17/16/4
f 23/22/4 16/23/4 12/20/4 21/19/4
f 13/24/5 9/25/5 11/26/5 15/27/5
f 19/15/1 3/28/1 10/29/1 22/30/1
f 1/21/4 12/20/4 47/31/4 45/32/4
f 6/33/4 13/34/4 59/35/4 57/36/4
f 20/37/4 5/38/4 16/23/4 23/22/4
f 22/30/1 10/29/1 14/6/1 24/5/1
f 12/39/6 16/8/6 14/7/6 10/40/6
f 29/41/1 22/30/1 24/5/1 31/42/1
f 27/43/4 20/37/4 23/22/4 30/44/4
f 26/12/1 19/15/1 22/30/1 29/41/1
f 30/44/4 23/22/4 21/19/4 28/45/4
f 28/45/4 21/19/4 17/16/4 25/11/4
f 25/11/7 17/16/7 19/15/7 26/12/7
f 32/46/8 18/47/8 20/37/8 27/43/8
f 31/42/1 24/5/1 18/1/1 32/48/1
f 15/49/1 31/42/1 32/48/1 8/50/1
f 27/43/4 6/33/4 57/36/4 60/51/4
f 9/52/4 2/53/4 52/54/4 56/55/4
f 9/52/4 28/45/4 25/11/4 2/53/4
f 13/34/4 30/44/4 28/45/4 9/52/4
f 4/56/1 26/12/1 29/41/1 11/57/1
f 6/33/4 27/43/4 30/44/4 13/34/4
f 11/57/1 29/41/1 31/42/1 15/49/1
f 36/58/4 38/59/4 44/60/4 42/61/4
f 33/4/1 34/3/1 40/62/1 39/63/1
f 16/23/1 5/38/1 36/58/1 37/64/1
f 7/2/1 14/6/1 35/65/1 34/3/1
f 20/37/1 18/47/1 33/66/1 38/59/1
f 5/38/1 20/37/1 38/59/1 36/58/1
f 43/67/6 42/68/6 40/69/6 41/70/6
f 39/71/8 40/72/8 42/61/8 44/60/8
f 37/64/4 36/58/4 42/61/4 43/73/4
f 34/3/1 35/65/1 41/74/1 40/62/1
f 38/59/9 33/66/9 39/71/9 44/60/9
f 35/10/2 37/9/2 43/67/2 41/70/2
f 49/17/7 45/32/7 46/75/7 50/18/7
f 45/32/6 47/76/6 48/77/6 46/75/6
f 3/28/1 19/15/1 50/18/1 46/75/1
f 12/39/10 10/40/10 48/77/10 47/76/10
f 17/16/4 1/21/4 45/32/4 49/17/4
f 10/29/1 3/28/1 46/75/1 48/78/1
f 56/79/5 52/54/5 54/80/5 55/81/5
f 52/54/7 51/14/7 53/13/7 54/80/7
f 4/56/1 11/57/1 55/82/1 54/80/1
f 11/26/9 9/25/9 56/79/9 55/81/9
f 26/12/1 4/56/1 54/80/1 53/13/1
f 2/53/4 25/11/4 51/14/4 52/54/4
f 57/83/5 59/84/5 61/85/5 58/86/5
f 58/87/8 62/88/8 60/51/8 57/36/8
f 13/24/3 15/27/3 61/85/3 59/84/3
f 15/49/1 8/50/1 58/89/1 61/90/1
f 32/46/10 27/43/10 60/51/10 62/88/10
f 8/50/1 32/48/1 62/91/1 58/89/1
